<?xml version="1.0" encoding="UTF-8" standalone="no"?>
<!-- Created with Inkscape (http://www.inkscape.org/) -->

<svg
   width="210mm"
   height="297mm"
   viewBox="0 0 210 297"
   version="1.1"
   id="svg5"
   xml:space="preserve"
   sodipodi:docname="havaseetLogo.svg"
   inkscape:version="1.3 (0e150ed6c4, 2023-07-21)"
   inkscape:export-filename="havaseetLogo.png"
   inkscape:export-xdpi="96"
   inkscape:export-ydpi="96"
   xmlns:inkscape="http://www.inkscape.org/namespaces/inkscape"
   xmlns:sodipodi="http://sodipodi.sourceforge.net/DTD/sodipodi-0.dtd"
   xmlns:xlink="http://www.w3.org/1999/xlink"
   xmlns="http://www.w3.org/2000/svg"
   xmlns:svg="http://www.w3.org/2000/svg"><sodipodi:namedview
     id="namedview721"
     pagecolor="#ffffff"
     bordercolor="#000000"
     borderopacity="0.25"
     inkscape:showpageshadow="2"
     inkscape:pageopacity="0.0"
     inkscape:pagecheckerboard="0"
     inkscape:deskcolor="#d1d1d1"
     inkscape:document-units="mm"
     showgrid="false"
     inkscape:zoom="0.6251321"
     inkscape:cx="361.52359"
     inkscape:cy="323.93153"
     inkscape:window-width="1920"
     inkscape:window-height="1007"
     inkscape:window-x="0"
     inkscape:window-y="0"
     inkscape:window-maximized="1"
     inkscape:current-layer="g3958" /><defs
     id="defs2"><rect
       x="25.475278"
       y="862.22923"
       width="756.01114"
       height="156.65641"
       id="rect4491" /><rect
       x="127.69212"
       y="273.43876"
       width="217.44179"
       height="84.185251"
       id="rect740" /><clipPath
       id="clipEmfPath1"
       clipPathUnits="userSpaceOnUse"><path
         id="path3341"
         d="m 6.25143,5.00114 348.82957,0 0,386.33886 -348.82957,0 z" /></clipPath><pattern
       y="0"
       x="0"
       height="6"
       width="6"
       patternUnits="userSpaceOnUse"
       id="EMFhbasepattern" /></defs><g
     id="layer2" /><g
     id="layer1"><image
       width="99.48333"
       height="85.724998"
       preserveAspectRatio="none"
       style="display:none;image-rendering:optimizeSpeed"
       xlink:href="../Downloads/Google_Classroom_Logo.png"
       id="image1335"
       x="259.92767"
       y="88.45742" /><g
       id="g5008"
       transform="matrix(0.63689371,0,0,0.60800317,34.837342,44.895017)"><rect
         style="fill:#ffffff;fill-opacity:1;stroke:#17a05e;stroke-width:5.02287;stroke-dasharray:none;stroke-opacity:1"
         id="rect4042"
         width="256.26019"
         height="218.5647"
         x="-23.886471"
         y="54.482903"
         ry="18.212416" /><g
         id="g4981"
         transform="translate(6.223935,0.33866971)"><g
           id="layer1-3"
           transform="matrix(0.3498985,0,0,0.39533258,-10.640011,-15.432071)"
           style="stroke-width:0.62929;stroke-dasharray:none"><path
             id="path3344"
             d="M 218.97657,308.01752 V 526.6364 h 17.85012 V 308.01752 Z"
             style="fill:#808080;fill-opacity:1;fill-rule:evenodd;stroke:none;stroke-width:0.62929;stroke-dasharray:none"
             sodipodi:nodetypes="ccccc" /><path
             transform="matrix(1.7844758,0,0,1.6466489,-11.802542,268.13065)"
             id="path3346"
             d="M 129.326,25.560042 V 156.989 h 10.003 V 25.560042 Z"
             clip-path="url(#clipEmfPath1)"
             style="fill:none;stroke:#000000;stroke-width:0.367109;stroke-linecap:butt;stroke-linejoin:miter;stroke-miterlimit:8;stroke-dasharray:none;stroke-opacity:1"
             sodipodi:nodetypes="ccccc" /><path
             id="path3348"
             d="M 373.20163,312.42058 V 526.6364 h 17.98935 V 312.42058 Z"
             style="fill:#808080;fill-opacity:1;fill-rule:evenodd;stroke:none;stroke-width:0.62929;stroke-dasharray:none"
             sodipodi:nodetypes="ccccc" /><path
             transform="matrix(1.7844758,0,0,1.6466489,-11.802542,268.13065)"
             id="path3350"
             d="M 215.752,24.223068 V 156.989 h 10.081 V 24.223068 Z"
             clip-path="url(#clipEmfPath1)"
             style="fill:none;stroke:#000000;stroke-width:0.367109;stroke-linecap:butt;stroke-linejoin:miter;stroke-miterlimit:8;stroke-dasharray:none;stroke-opacity:1"
             sodipodi:nodetypes="ccccc" /><path
             id="path3368"
             d="m 183.69744,319.15439 c -8.36557,0 -15.05917,6.17643 -15.05917,13.89669 v 55.32987 c 0,7.72032 6.6936,13.89676 15.05917,13.89676 h 233.0115 c 8.36741,0 15.05923,-6.17644 15.05923,-13.89676 v -55.32987 c 0,-7.72026 -6.69182,-13.89669 -15.05923,-13.89669 z"
             style="fill:#f5b80f;fill-opacity:1;fill-rule:evenodd;stroke:none;stroke-width:0.62929;stroke-dasharray:none" /><path
             id="path3370"
             d="m 183.78649,303.31542 c -8.39872,0 -15.11883,7.35115 -15.11883,16.53976 v 65.85329 c 0,9.18868 6.72011,16.53985 15.11883,16.53985 h 233.93459 c 8.40056,0 15.11889,-7.35117 15.11889,-16.53985 v -65.85329 c 0,-9.18861 -6.71833,-16.53976 -15.11889,-16.53976 z"
             style="fill:#d4aa00;stroke:#000000;stroke-width:0.687889;stroke-linecap:butt;stroke-linejoin:round;stroke-miterlimit:10;stroke-dasharray:none;stroke-opacity:1" /><path
             id="path3402"
             d="m 130.5699,557.90463 c -3.48615,0 -6.27514,2.57369 -6.27514,5.7896 0,3.08912 2.78899,5.66117 6.27514,5.66117 h 340.10342 c 3.34769,0 6.1368,-2.57205 6.1368,-5.66117 0,-3.21591 -2.78911,-5.7896 -6.1368,-5.7896 z"
             style="fill:#f5b183;fill-opacity:1;fill-rule:evenodd;stroke:none;stroke-width:0.62929;stroke-dasharray:none" /><path
             id="path3404"
             d="m 130.5699,557.90463 c -3.48615,0 -6.27514,2.57369 -6.27514,5.7896 0,3.08912 2.78899,5.66117 6.27514,5.66117 h 340.10342 c 3.34769,0 6.1368,-2.57205 6.1368,-5.66117 0,-3.21591 -2.78911,-5.7896 -6.1368,-5.7896 z"
             style="fill:none;stroke:#000000;stroke-width:0.62929;stroke-linecap:butt;stroke-linejoin:round;stroke-miterlimit:10;stroke-dasharray:none;stroke-opacity:1" /><path
             id="path3406"
             d="M 475.97321,558.93379 442.22696,502.57394 H 159.01639 l -33.7455,56.35985 z"
             style="fill:#f8cbad;fill-opacity:1;fill-rule:evenodd;stroke:none;stroke-width:0.62929;stroke-dasharray:none" /><path
             id="path3408"
             d="M 475.97321,558.93379 442.22696,502.57394 H 159.01639 l -33.7455,56.35985 z"
             style="fill:none;stroke:#000000;stroke-width:0.62929;stroke-linecap:butt;stroke-linejoin:miter;stroke-miterlimit:8;stroke-dasharray:none;stroke-opacity:1" /><path
             id="path3446"
             d="m 18.735706,562.92196 c -5.438366,0 -9.9006583,1.92382 -9.9006583,4.34306 0,2.48195 4.4622923,4.40498 9.9006583,4.40498 H 604.12175 c 5.43906,0 9.90028,-1.92303 9.90028,-4.40498 0,-2.41924 -4.46122,-4.34306 -9.90028,-4.34306 z"
             style="fill:#fce5d6;fill-opacity:1;fill-rule:evenodd;stroke:none;stroke-width:0.62929;stroke-dasharray:none" /><path
             transform="matrix(1.78564,0,0,0.84487792,-12.013418,411.48865)"
             id="path3448"
             d="m 17.1133,179.025 c -3.0476,0 -5.5482,2.423 -5.5482,5.47 0,3.126 2.5006,5.548 5.5482,5.548 H 345.157 c 3.048,0 5.548,-2.422 5.548,-5.548 0,-3.047 -2.5,-5.47 -5.548,-5.47 z"
             clip-path="url(#clipEmfPath1)"
             style="fill:none;stroke:#000000;stroke-width:0.512338;stroke-linecap:butt;stroke-linejoin:round;stroke-miterlimit:10;stroke-dasharray:none;stroke-opacity:1" /><path
             id="path3450"
             d="M 612.48916,564.46655 477.33794,463.20089 H 135.73534 L 10.368994,564.46655 Z"
             style="fill:#d4aa00;fill-opacity:1;fill-rule:evenodd;stroke:none;stroke-width:0.62929;stroke-dasharray:none"
             sodipodi:nodetypes="ccccc" /><path
             transform="matrix(1.7844758,0,0,1.6466489,-11.802542,268.13065)"
             id="path3452"
             d="M 349.846,179.963 275.47954,118.465 H 81.307814 L 12.4247,179.963 Z"
             clip-path="url(#clipEmfPath1)"
             style="fill:none;stroke:#000000;stroke-width:0.367109;stroke-linecap:butt;stroke-linejoin:miter;stroke-miterlimit:8;stroke-dasharray:none;stroke-opacity:1"
             sodipodi:nodetypes="ccccc" /><path
             id="path3454"
             d="m 79.254392,543.36473 c -2.649378,0 -4.741135,1.92985 -4.741135,4.37349 0,2.44527 2.091757,4.37518 4.741135,4.37518 H 541.92919 c 2.64995,0 4.74139,-1.92991 4.74139,-4.37518 0,-2.44364 -2.09144,-4.37349 -4.74139,-4.37349 z"
             style="fill:#f5b183;fill-opacity:1;fill-rule:evenodd;stroke:none;stroke-width:0.62929;stroke-dasharray:none" /><path
             id="path3456"
             d="m 79.254392,543.36473 c -2.649378,0 -4.741135,1.92985 -4.741135,4.37349 0,2.44527 2.091757,4.37518 4.741135,4.37518 H 541.92919 c 2.64995,0 4.74139,-1.92991 4.74139,-4.37518 0,-2.44364 -2.09144,-4.37349 -4.74139,-4.37349 z"
             style="fill:none;stroke:#000000;stroke-width:0.62929;stroke-linecap:butt;stroke-linejoin:round;stroke-miterlimit:10;stroke-dasharray:none;stroke-opacity:1" /></g><g
           id="g2714"
           transform="matrix(0.95845354,0,0,1.0925556,2.9326931,-14.388402)"><g
             id="g2180"
             transform="matrix(1.0671313,0,0,0.8093818,-9.8517589,13.915768)"
             style="stroke:#ffffff;stroke-width:2.24815;stroke-dasharray:none;stroke-opacity:1"><ellipse
               style="fill:#19a15f;fill-opacity:1;stroke:#ffffff;stroke-width:2.24815;stroke-dasharray:none;stroke-opacity:1"
               id="ellipse2176"
               cx="100.41261"
               cy="91.092903"
               rx="19.786621"
               ry="22.595514" /><path
               id="path2178"
               style="fill:#17a05e;fill-opacity:1;stroke:#ffffff;stroke-width:2.24815;stroke-dasharray:none;stroke-opacity:1"
               d="m 89.981135,115.40464 c -41.118221,14.69621 -18.388117,21.86713 -3.915387,68.23417 l -15.265469,-0.0795 30.286711,37.11353 29.76598,-37.43633 -17.33203,-0.69284 c 13.24316,-34.53304 34.48846,-58.66263 -0.30401,-67.13899 z"
               sodipodi:nodetypes="cccccccc" /></g><g
             id="g3958"
             transform="matrix(1.0671313,0,0,0.8093818,-9.8517589,13.915768)"
             style="stroke:#ffffff;stroke-width:1.42446;stroke-dasharray:none"><path
               id="rect1058"
               style="fill:#17a05e;fill-opacity:1;stroke:#ffffff;stroke-width:1.42446;stroke-dasharray:none"
               d="m 66.693805,132.26158 c -1.089865,9.69992 10.6409,23.40542 19.371937,51.3775 l -15.265342,-0.0798 30.28661,37.11391 29.76579,-37.43629 -17.33195,-0.69307 c 8.05438,-21.0027 19.06705,-38.15699 18.63441,-50.28224"
               sodipodi:nodetypes="ccccccc" /></g></g><text
           xml:space="preserve"
           transform="matrix(0.54828495,0,0,0.61913135,-27.762749,-332.97922)"
           id="text4489"
           style="font-size:96px;white-space:pre;shape-inside:url(#rect4491);display:inline;fill:#17a05e;fill-opacity:1;stroke:#ffffff;stroke-width:2.4867;stroke-dasharray:none;stroke-opacity:1"><tspan
             x="25.474609"
             y="950.50249"
             id="tspan2"><tspan
               style="font-weight:bold;-inkscape-font-specification:'sans-serif Bold'"
               id="tspan1">Havaseet</tspan></tspan></text></g></g></g></svg>
