<?xml version="1.0" encoding="UTF-8" standalone="no"?>
<!-- Created with Inkscape (http://www.inkscape.org/) -->

<svg
   width="210mm"
   height="297mm"
   viewBox="0 0 210 297"
   version="1.1"
   id="svg5"
   xml:space="preserve"
   xmlns:xlink="http://www.w3.org/1999/xlink"
   xmlns="http://www.w3.org/2000/svg"
   xmlns:svg="http://www.w3.org/2000/svg"><defs
     id="defs2"><rect
       x="25.475278"
       y="862.22923"
       width="756.01114"
       height="156.65641"
       id="rect4491" /><rect
       x="127.69212"
       y="273.43876"
       width="217.44179"
       height="84.185251"
       id="rect740" /><clipPath
       id="clipEmfPath1"
       clipPathUnits="userSpaceOnUse"><path
         id="path3341"
         d="m 6.25143,5.00114 348.82957,0 0,386.33886 -348.82957,0 z" /></clipPath><pattern
       y="0"
       x="0"
       height="6"
       width="6"
       patternUnits="userSpaceOnUse"
       id="EMFhbasepattern" /></defs><g
     id="layer2" /><g
     id="layer1"><image
       width="99.48333"
       height="85.724998"
       preserveAspectRatio="none"
       style="display:none;image-rendering:optimizeSpeed"
       xlink:href="../Downloads/Google_Classroom_Logo.png"
       id="image1335"
       x="259.92767"
       y="88.45742" /><g
       id="g5008"
       transform="matrix(0.63689371,0,0,0.60800317,34.837342,44.895017)"><rect
         style="fill:#ffffff;fill-opacity:1;stroke:#17a05e;stroke-width:5.02287;stroke-dasharray:none;stroke-opacity:1"
         id="rect4042"
         width="256.26019"
         height="218.5647"
         x="-23.886471"
         y="54.482903"
         ry="18.212416" /><g
         id="g4981"><g
           id="layer1-3"
           transform="matrix(0.33966669,0,0,0.35803281,-0.62484243,20.484097)"
           style="stroke-width:0.62929;stroke-dasharray:none"><path
             id="path3344"
             d="M 218.97657,288.20378 V 526.6364 h 17.85012 V 288.20378 Z"
             style="fill:#808080;fill-opacity:1;fill-rule:evenodd;stroke:none;stroke-width:0.62929;stroke-dasharray:none" /><path
             transform="matrix(1.7844758,0,0,1.6466489,-11.802542,268.13065)"
             id="path3346"
             d="M 129.326,12.1903 V 156.989 h 10.003 V 12.1903 Z"
             clip-path="url(#clipEmfPath1)"
             style="fill:none;stroke:#000000;stroke-width:0.367109;stroke-linecap:butt;stroke-linejoin:miter;stroke-miterlimit:8;stroke-dasharray:none;stroke-opacity:1" /><path
             id="path3348"
             d="M 373.20163,288.20378 V 526.6364 h 17.98935 V 288.20378 Z"
             style="fill:#808080;fill-opacity:1;fill-rule:evenodd;stroke:none;stroke-width:0.62929;stroke-dasharray:none" /><path
             transform="matrix(1.7844758,0,0,1.6466489,-11.802542,268.13065)"
             id="path3350"
             d="M 215.752,12.1903 V 156.989 h 10.081 V 12.1903 Z"
             clip-path="url(#clipEmfPath1)"
             style="fill:none;stroke:#000000;stroke-width:0.367109;stroke-linecap:butt;stroke-linejoin:miter;stroke-miterlimit:8;stroke-dasharray:none;stroke-opacity:1" /><path
             id="path3368"
             d="m 183.69744,319.15439 c -8.36557,0 -15.05917,6.17643 -15.05917,13.89669 v 55.32987 c 0,7.72032 6.6936,13.89676 15.05917,13.89676 h 233.0115 c 8.36741,0 15.05923,-6.17644 15.05923,-13.89676 v -55.32987 c 0,-7.72026 -6.69182,-13.89669 -15.05923,-13.89669 z"
             style="fill:#f5b80f;fill-opacity:1;fill-rule:evenodd;stroke:none;stroke-width:0.62929;stroke-dasharray:none" /><path
             id="path3370"
             d="m 183.69744,319.15439 c -8.36557,0 -15.05917,6.17643 -15.05917,13.89669 v 55.32987 c 0,7.72032 6.6936,13.89676 15.05917,13.89676 h 233.0115 c 8.36741,0 15.05923,-6.17644 15.05923,-13.89676 v -55.32987 c 0,-7.72026 -6.69182,-13.89669 -15.05923,-13.89669 z"
             style="fill:#d4aa00;stroke:#000000;stroke-width:0.62929;stroke-linecap:butt;stroke-linejoin:round;stroke-miterlimit:10;stroke-dasharray:none;stroke-opacity:1" /><path
             id="path3402"
             d="m 130.5699,557.90463 c -3.48615,0 -6.27514,2.57369 -6.27514,5.7896 0,3.08912 2.78899,5.66117 6.27514,5.66117 h 340.10342 c 3.34769,0 6.1368,-2.57205 6.1368,-5.66117 0,-3.21591 -2.78911,-5.7896 -6.1368,-5.7896 z"
             style="fill:#f5b183;fill-opacity:1;fill-rule:evenodd;stroke:none;stroke-width:0.62929;stroke-dasharray:none" /><path
             id="path3404"
             d="m 130.5699,557.90463 c -3.48615,0 -6.27514,2.57369 -6.27514,5.7896 0,3.08912 2.78899,5.66117 6.27514,5.66117 h 340.10342 c 3.34769,0 6.1368,-2.57205 6.1368,-5.66117 0,-3.21591 -2.78911,-5.7896 -6.1368,-5.7896 z"
             style="fill:none;stroke:#000000;stroke-width:0.62929;stroke-linecap:butt;stroke-linejoin:round;stroke-miterlimit:10;stroke-dasharray:none;stroke-opacity:1" /><path
             id="path3406"
             d="M 475.97321,558.93379 442.22696,502.57394 H 159.01639 l -33.7455,56.35985 z"
             style="fill:#f8cbad;fill-opacity:1;fill-rule:evenodd;stroke:none;stroke-width:0.62929;stroke-dasharray:none" /><path
             id="path3408"
             d="M 475.97321,558.93379 442.22696,502.57394 H 159.01639 l -33.7455,56.35985 z"
             style="fill:none;stroke:#000000;stroke-width:0.62929;stroke-linecap:butt;stroke-linejoin:miter;stroke-miterlimit:8;stroke-dasharray:none;stroke-opacity:1" /><path
             id="path3446"
             d="m 18.735706,562.92196 c -5.438366,0 -9.9006583,1.92382 -9.9006583,4.34306 0,2.48195 4.4622923,4.40498 9.9006583,4.40498 H 604.12175 c 5.43906,0 9.90028,-1.92303 9.90028,-4.40498 0,-2.41924 -4.46122,-4.34306 -9.90028,-4.34306 z"
             style="fill:#fce5d6;fill-opacity:1;fill-rule:evenodd;stroke:none;stroke-width:0.62929;stroke-dasharray:none" /><path
             transform="matrix(1.78564,0,0,0.84487792,-12.013418,411.48865)"
             id="path3448"
             d="m 17.1133,179.025 c -3.0476,0 -5.5482,2.423 -5.5482,5.47 0,3.126 2.5006,5.548 5.5482,5.548 H 345.157 c 3.048,0 5.548,-2.422 5.548,-5.548 0,-3.047 -2.5,-5.47 -5.548,-5.47 z"
             clip-path="url(#clipEmfPath1)"
             style="fill:none;stroke:#000000;stroke-width:0.512338;stroke-linecap:butt;stroke-linejoin:round;stroke-miterlimit:10;stroke-dasharray:none;stroke-opacity:1" /><path
             id="path3450"
             d="M 612.48916,564.46655 577.62766,463.20089 H 45.229987 L 10.368994,564.46655 Z"
             style="fill:#d4aa00;fill-opacity:1;fill-rule:evenodd;stroke:none;stroke-width:0.62929;stroke-dasharray:none" /><path
             transform="matrix(1.7844758,0,0,1.6466489,-11.802542,268.13065)"
             id="path3452"
             d="M 349.846,179.963 330.31,118.465 H 31.9604 l -19.5357,61.498 z"
             clip-path="url(#clipEmfPath1)"
             style="fill:none;stroke:#000000;stroke-width:0.367109;stroke-linecap:butt;stroke-linejoin:miter;stroke-miterlimit:8;stroke-dasharray:none;stroke-opacity:1" /><path
             id="path3454"
             d="m 79.254392,543.36473 c -2.649378,0 -4.741135,1.92985 -4.741135,4.37349 0,2.44527 2.091757,4.37518 4.741135,4.37518 H 541.92919 c 2.64995,0 4.74139,-1.92991 4.74139,-4.37518 0,-2.44364 -2.09144,-4.37349 -4.74139,-4.37349 z"
             style="fill:#f5b183;fill-opacity:1;fill-rule:evenodd;stroke:none;stroke-width:0.62929;stroke-dasharray:none" /><path
             id="path3456"
             d="m 79.254392,543.36473 c -2.649378,0 -4.741135,1.92985 -4.741135,4.37349 0,2.44527 2.091757,4.37518 4.741135,4.37518 H 541.92919 c 2.64995,0 4.74139,-1.92991 4.74139,-4.37518 0,-2.44364 -2.09144,-4.37349 -4.74139,-4.37349 z"
             style="fill:none;stroke:#000000;stroke-width:0.62929;stroke-linecap:butt;stroke-linejoin:round;stroke-miterlimit:10;stroke-dasharray:none;stroke-opacity:1" /></g><g
           id="g3958"
           transform="matrix(1.1825494,0,0,0.9537767,-15.742943,-0.2145692)"
           style="stroke:#000000;stroke-width:1.42445596;stroke-dasharray:none"><ellipse
             style="fill:#19a15f;fill-opacity:1;stroke:#000000;stroke-width:1.42445596;stroke-dasharray:none"
             id="path1004"
             cx="100.41261"
             cy="88.140259"
             rx="19.786621"
             ry="22.595514" /><path
             id="rect1058"
             style="fill:#17a05e;fill-opacity:1;stroke:#000000;stroke-width:1.42445596;stroke-dasharray:none"
             d="m 89.981135,115.40464 c -41.118221,14.69621 -18.388117,21.86713 -3.915387,68.23417 l -15.265469,-0.0795 29.168171,45.66529 30.88452,-45.98809 -17.33203,-0.69284 c 13.24316,-34.53304 34.48846,-58.66263 -0.30401,-67.13899 z" /></g><text
           xml:space="preserve"
           transform="matrix(0.49162743,0,0,0.46554731,-5.2404161,-183.05325)"
           id="text4489"
           style="font-size:96px;white-space:pre;shape-inside:url(#rect4491);display:inline;fill:#17a05e;fill-opacity:1;stroke:#000000;stroke-width:0.888;stroke-dasharray:none;stroke-opacity:1"><tspan
             x="25.474609"
             y="950.50249"
             id="tspan5356">Havaseet</tspan></text></g></g></g></svg>
